<?xml version="1.0" standalone="no"?>
<!DOCTYPE svg PUBLIC "-//W3C//DTD SVG 20010904//EN"
 "http://www.w3.org/TR/2001/REC-SVG-20010904/DTD/svg10.dtd">
<svg version="1.0" xmlns="http://www.w3.org/2000/svg"
 width="4800.000000pt" height="4800.000000pt" viewBox="0 0 4800.000000 4800.000000"
 preserveAspectRatio="xMidYMid meet">
<metadata>
Created by potrace 1.14, written by Peter Selinger 2001-2017
</metadata>
<g transform="translate(0.000000,4800.000000) scale(0.100000,-0.100000)"
fill="#000000" stroke="none">
<path d="M21337 32684 c-1 -1 -44 -4 -96 -8 -645 -46 -1161 -454 -1320 -1045
-27 -101 -31 -121 -46 -236 -6 -43 -7 -254 -1 -263 2 -4 7 -32 10 -62 4 -30 8
-62 11 -70 2 -8 6 -27 9 -43 9 -50 67 -221 102 -295 134 -291 340 -497 578
-577 61 -21 186 -47 186 -40 0 2 -31 34 -69 73 -196 200 -307 415 -336 652
-13 107 -5 280 20 410 26 137 32 144 33 42 1 -52 4 -110 6 -130 3 -21 8 -58
11 -83 40 -362 217 -689 483 -891 46 -36 52 -44 49 -72 -2 -17 -40 -144 -86
-283 -57 -175 -91 -264 -113 -294 -78 -107 -223 -427 -263 -579 -2 -8 -13 -48
-24 -88 -10 -40 -19 -75 -20 -77 0 -3 -3 -20 -6 -38 -15 -93 -11 -157 19 -272
52 -202 49 -272 -20 -411 -28 -54 -89 -166 -137 -248 -48 -82 -87 -150 -87
-152 0 -1 -26 -49 -58 -106 -32 -57 -80 -143 -107 -193 -81 -152 -107 -200
-115 -210 -30 -42 -90 -172 -99 -216 -20 -102 -16 -150 24 -236 34 -76 108
-139 272 -234 80 -46 161 -98 180 -114 35 -30 35 -32 38 -117 3 -91 25 -158
63 -196 19 -19 19 -20 1 -73 -30 -87 -23 -237 17 -360 22 -68 19 -161 -7 -262
-6 -21 -12 -50 -14 -65 -2 -15 -11 -67 -20 -117 -44 -253 -1 -465 165 -822 22
-47 40 -90 41 -96 1 -7 5 -1 9 13 12 37 11 138 -1 204 -12 64 -6 84 12 40 37
-93 41 -203 25 -744 -3 -109 14 -212 47 -275 121 -239 478 -290 1002 -145 127
35 496 152 570 180 28 10 109 39 180 64 72 25 173 61 225 81 52 20 118 44 145
54 28 10 113 44 189 76 808 332 1069 514 1164 815 51 163 53 217 27 960 -5
145 -12 357 -20 615 -2 88 -8 237 -11 330 -12 316 -7 768 10 865 3 14 7 52 10
85 24 248 102 495 205 651 141 213 299 283 484 214 166 -62 290 -212 322 -387
2 -16 8 -49 13 -74 13 -69 5 -192 -18 -276 -22 -81 -176 -475 -218 -561 -34
-68 -95 -130 -157 -161 -27 -13 -93 -31 -147 -40 -94 -15 -98 -17 -98 -41 1
-55 56 -92 140 -91 33 0 64 2 68 5 5 3 24 8 43 11 69 12 135 35 182 64 52 34
146 126 183 181 13 19 35 51 48 70 13 19 27 33 32 30 5 -2 71 -81 147 -175 76
-93 143 -177 150 -185 171 -210 266 -328 284 -353 12 -16 26 -33 30 -36 7 -5
278 -340 358 -442 17 -21 32 -38 35 -39 3 0 6 82 7 183 2 208 8 333 28 552 4
43 33 251 39 280 2 6 8 37 15 70 29 138 92 355 146 505 41 115 119 271 281
566 251 459 327 622 398 857 134 448 72 835 -192 1201 l-36 49 -1 181 c-1 100
-5 199 -8 221 -3 22 -9 67 -12 100 -12 112 -60 308 -104 420 -30 78 -122 247
-172 318 -57 81 -173 207 -252 276 -172 148 -473 302 -796 405 -106 35 -422
119 -487 130 -16 3 -83 16 -149 30 -66 13 -145 27 -175 31 -30 4 -57 8 -60 10
-3 2 -27 6 -55 9 -27 4 -81 11 -120 16 -38 5 -101 12 -140 16 -38 3 -83 8
-100 9 -27 3 -73 6 -310 20 -81 5 -357 13 -695 20 -538 11 -1098 30 -1216 40
-208 18 -322 41 -419 85 -123 55 -176 129 -176 245 l0 65 -32 1 c-91 3 -149 4
-150 3z m0 -2217 c8 -38 24 -86 34 -107 25 -51 24 -63 -1 -25 -26 40 -81 183
-82 215 -1 14 3 36 7 50 8 23 9 21 17 -20 5 -25 16 -76 25 -113z m71 -192 c-3
-3 -9 2 -12 12 -6 14 -5 15 5 6 7 -7 10 -15 7 -18z m542 -830 c80 -3 165 -7
190 -10 257 -28 361 -125 347 -324 -3 -42 -7 -85 -10 -96 -5 -22 -16 -84 -18
-100 -1 -5 -5 -19 -9 -31 -5 -11 -11 -37 -14 -57 -3 -20 -10 -54 -14 -74 -5
-21 -9 -77 -11 -124 -4 -144 17 -177 227 -352 152 -125 224 -190 297 -267 153
-161 244 -320 279 -486 14 -66 15 -213 2 -279 -27 -133 -97 -287 -199 -437
-67 -100 -69 -102 -167 -217 -57 -68 -81 -94 -165 -185 -51 -55 -190 -165
-261 -208 -270 -159 -551 -138 -814 61 -132 100 -328 318 -383 426 -34 68 -99
123 -109 93 -6 -18 -119 -36 -206 -33 -129 6 -212 58 -199 125 3 15 17 52 31
83 15 31 26 61 26 66 0 6 5 19 10 29 6 9 53 123 105 252 72 178 103 244 129
272 61 64 200 137 401 210 109 40 474 154 521 164 63 12 276 88 281 100 3 8
-7 39 -21 68 -66 135 -346 335 -656 470 -36 15 -74 32 -85 37 -11 5 -47 18
-80 30 -233 82 -288 136 -286 284 1 81 31 249 56 309 22 52 81 114 137 142 76
38 161 54 328 61 85 3 156 7 158 8 2 2 11 1 20 -1 9 -2 82 -6 162 -9z"/>
<path d="M16220 29959 c-89 -14 -159 -48 -219 -108 -102 -100 -136 -225 -107
-389 20 -110 115 -282 217 -392 17 -19 71 -78 118 -130 47 -52 94 -104 104
-115 73 -80 337 -420 337 -434 0 -5 4 -11 8 -13 12 -4 144 -196 264 -383 53
-82 199 -328 238 -400 15 -27 53 -97 85 -155 80 -145 249 -486 327 -660 81
-180 177 -399 183 -420 1 -3 9 -23 19 -45 33 -75 152 -381 211 -540 42 -113
135 -377 135 -382 0 -7 -372 64 -465 89 -22 5 -48 12 -57 13 -39 8 -178 48
-240 71 -241 85 -322 180 -394 465 -14 56 -35 122 -46 146 -37 79 -123 137
-266 179 -109 32 -394 111 -572 158 -30 8 -156 42 -280 76 -124 34 -250 68
-280 76 -30 8 -109 30 -175 48 -104 29 -148 41 -190 52 -5 1 -240 65 -521 142
-566 155 -617 167 -669 158 -70 -13 -89 -47 -217 -376 -120 -307 -131 -357
-92 -417 19 -30 121 -76 224 -103 47 -12 117 -30 155 -40 39 -10 185 -48 325
-85 140 -37 284 -75 320 -85 36 -10 196 -52 355 -94 160 -41 317 -83 350 -91
33 -9 128 -34 210 -56 242 -63 364 -95 470 -124 55 -15 107 -28 115 -30 17 -3
183 -47 400 -105 80 -21 199 -53 265 -70 66 -17 152 -40 190 -50 39 -10 122
-32 186 -49 64 -17 185 -49 270 -72 85 -22 170 -44 189 -49 19 -4 62 -15 95
-24 33 -9 130 -35 215 -57 85 -22 166 -44 180 -49 14 -4 36 -11 50 -14 21 -4
29 -16 43 -63 93 -305 110 -347 156 -396 55 -60 123 -70 168 -24 47 47 63 117
58 257 -3 69 -7 141 -9 160 -2 19 -7 64 -11 100 -3 36 -10 94 -15 129 -5 35
-8 67 -8 70 1 3 -1 24 -5 46 -3 22 -9 57 -12 78 -17 122 -33 221 -60 367 -8
41 -17 89 -20 105 -50 273 -187 782 -299 1120 -73 216 -212 584 -266 702 -11
24 -20 45 -20 47 0 5 -29 68 -96 214 -19 41 -34 76 -34 78 0 7 -220 447 -257
514 -17 30 -39 71 -50 90 -11 19 -35 62 -53 95 -33 59 -111 195 -129 225 -5 8
-40 65 -77 125 -83 137 -290 448 -356 535 -192 257 -447 394 -668 359z m206
-314 c37 -24 65 -87 58 -132 -12 -78 -87 -141 -154 -129 -14 2 -30 5 -37 5 -7
1 -28 15 -47 31 -52 46 -64 124 -27 183 45 73 133 91 207 42z m645 -591 c497
-673 932 -1655 1209 -2729 17 -66 35 -131 40 -145 5 -14 11 -45 14 -70 4 -28
-17 21 -54 130 -237 686 -440 1200 -697 1770 -96 211 -318 646 -433 845 -35
61 -69 121 -77 135 -8 14 -32 54 -53 89 -40 63 -49 88 -29 76 6 -4 41 -49 80
-101z m-3102 -2246 c-29 -109 -54 -224 -64 -295 -9 -62 5 -89 56 -116 19 -9
180 -56 359 -102 179 -47 341 -90 360 -95 45 -12 535 -141 660 -173 52 -14
165 -43 250 -66 85 -23 162 -43 170 -45 8 -2 35 -9 60 -16 25 -7 52 -13 60
-15 8 -2 84 -22 168 -45 85 -22 213 -56 285 -75 73 -18 177 -46 232 -61 55
-15 119 -29 142 -31 55 -6 60 3 78 149 4 26 10 60 15 75 8 26 8 26 10 -12 1
-22 3 -49 4 -60 2 -11 6 -51 10 -90 4 -38 9 -87 12 -107 6 -45 -9 -78 -36 -78
-11 0 -68 13 -127 29 -144 38 -569 151 -798 211 -133 35 -212 56 -357 94 -54
14 -140 37 -190 50 -83 22 -237 63 -263 70 -5 2 -23 6 -40 11 -16 4 -106 27
-199 52 -93 25 -176 46 -185 48 -9 2 -43 11 -76 20 -103 28 -249 66 -265 70
-8 2 -42 10 -75 20 -77 21 -194 52 -269 71 -97 24 -129 51 -140 115 -7 46 135
429 159 429 2 0 -1 -15 -6 -32z m4524 -1587 c10 -9 20 -33 23 -52 11 -66 -64
-116 -126 -84 -31 16 -40 33 -40 78 1 75 90 111 143 58z"/>
<path d="M31665 29963 c-120 -19 -227 -61 -320 -127 -69 -50 -167 -148 -229
-231 -144 -190 -479 -724 -611 -970 -26 -49 -51 -94 -55 -100 -19 -24 -320
-637 -320 -650 0 -3 -14 -35 -31 -72 -162 -354 -384 -981 -489 -1383 -31 -120
-106 -427 -114 -470 -3 -14 -14 -70 -25 -125 -21 -108 -67 -374 -76 -442 -3
-24 -8 -62 -11 -85 -4 -24 -7 -54 -9 -68 -4 -37 -16 -141 -20 -170 -10 -74
-19 -217 -20 -310 0 -126 19 -187 71 -226 43 -33 88 -27 140 18 49 43 81 113
139 306 l49 162 35 10 c76 21 453 121 601 159 85 22 180 47 211 55 31 8 177
47 325 86 148 38 330 86 404 106 74 20 142 37 150 39 8 2 85 22 170 45 176 47
567 150 590 155 21 5 226 60 337 91 51 14 101 27 111 29 20 3 600 155 897 235
99 26 279 74 400 105 306 80 369 113 379 196 5 44 -11 97 -98 324 -86 225 -82
216 -125 305 -61 128 -108 133 -416 47 -110 -30 -234 -65 -275 -76 -41 -11
-118 -32 -170 -46 -52 -15 -103 -28 -112 -31 -10 -2 -26 -6 -35 -9 -34 -9
-348 -97 -368 -102 -11 -3 -144 -39 -295 -80 -279 -76 -483 -131 -510 -138 -8
-2 -114 -31 -235 -65 -121 -34 -227 -63 -235 -65 -86 -18 -234 -67 -291 -96
-71 -36 -134 -130 -153 -231 -2 -7 -8 -33 -15 -58 -63 -231 -133 -331 -286
-403 -78 -37 -259 -96 -345 -113 -14 -3 -33 -7 -42 -10 -9 -3 -25 -6 -35 -8
-10 -2 -97 -20 -193 -41 -186 -38 -250 -49 -250 -43 0 3 16 49 36 104 19 54
39 111 44 127 11 34 99 274 111 302 4 11 36 90 69 175 33 85 64 164 69 175 5
11 19 45 31 75 13 30 31 73 41 95 9 22 49 114 89 205 102 235 367 767 464 935
13 22 34 58 46 80 18 33 94 159 184 308 73 119 376 557 410 593 6 6 22 26 36
44 14 18 30 38 35 44 6 6 28 34 49 61 22 28 47 57 55 66 9 9 36 40 61 70 25
30 73 83 107 119 135 143 194 221 247 326 145 290 61 565 -199 648 -49 15
-140 25 -180 19z m36 -297 c55 -12 102 -74 101 -135 -1 -53 -16 -86 -55 -115
-48 -37 -98 -42 -152 -16 -90 44 -110 167 -37 234 23 20 90 46 107 41 5 -2 22
-6 36 -9z m-721 -587 c-22 -35 -48 -80 -58 -99 -11 -19 -54 -96 -97 -170 -162
-281 -379 -725 -560 -1147 -47 -109 -90 -206 -95 -215 -6 -10 -10 -22 -10 -28
0 -6 -9 -29 -20 -53 -71 -154 -403 -1058 -461 -1254 -7 -24 -15 -43 -20 -43
-10 0 2 46 101 405 119 432 321 1010 464 1328 13 29 40 90 61 137 63 143 247
497 335 645 122 205 303 473 374 553 36 40 28 8 -14 -59z m3084 -2311 c37 -79
104 -263 117 -316 11 -50 -6 -98 -44 -120 -24 -15 -393 -120 -516 -147 -16 -4
-263 -69 -531 -141 -74 -20 -169 -45 -210 -56 -41 -10 -82 -20 -90 -22 -30 -9
-327 -88 -440 -117 -63 -17 -140 -37 -170 -45 -30 -8 -62 -17 -70 -19 -8 -2
-85 -22 -170 -45 -85 -22 -162 -43 -170 -45 -25 -5 -327 -85 -420 -111 -139
-38 -166 -40 -180 -15 -6 12 -9 38 -6 59 3 20 8 69 12 107 4 39 8 77 9 85 2 8
4 33 4 54 1 38 12 43 17 8 26 -192 33 -212 70 -212 25 0 180 39 624 157 135
35 315 83 400 104 85 22 245 64 355 93 216 58 255 68 270 71 6 2 37 10 70 20
33 9 85 22 115 30 30 7 98 25 150 39 52 14 240 63 418 110 177 46 339 93 360
103 59 31 71 74 48 178 -11 52 -57 241 -61 253 -2 6 -2 12 1 12 3 0 20 -33 38
-72z m-4453 -1535 c58 -34 57 -118 -2 -148 -41 -22 -63 -19 -98 14 -45 42 -38
106 16 135 36 20 49 20 84 -1z"/>
<path d="M24625 28091 c-66 -30 -144 -136 -158 -216 -3 -17 -8 -41 -12 -55 -9
-40 -7 -133 3 -160 6 -14 31 -47 56 -74 72 -76 72 -74 -19 -202 -79 -110 -107
-220 -79 -313 20 -66 70 -104 167 -125 32 -7 31 -9 11 40 -19 46 -13 110 17
167 24 47 28 51 100 104 78 58 109 97 109 140 0 57 -26 97 -120 184 -97 89
-124 132 -122 192 4 83 71 175 130 178 53 3 85 -2 118 -17 40 -19 106 -79 123
-112 19 -36 23 -20 10 34 -47 192 -197 297 -334 235z"/>
<path d="M18754 25213 c5 -32 12 -97 22 -201 3 -39 9 -74 14 -77 4 -2 22 -6
41 -9 284 -37 451 -113 645 -291 48 -44 100 -85 116 -92 81 -35 130 40 85 131
-24 48 -148 174 -241 243 -149 111 -357 216 -568 287 -59 20 -110 36 -113 36
-3 0 -3 -12 -1 -27z"/>
<path d="M29125 25201 c-312 -108 -527 -234 -711 -416 -81 -80 -106 -122 -108
-178 0 -30 5 -44 23 -58 42 -34 92 -12 199 90 174 165 372 255 628 286 27 3
52 9 55 13 6 6 14 69 25 194 2 26 6 61 9 78 3 16 2 30 -2 29 -5 0 -57 -17
-118 -38z"/>
<path d="M26784 24903 c-546 -188 -1157 -427 -1617 -632 -76 -33 -139 -61
-141 -61 -4 0 -100 -45 -305 -141 -57 -27 -106 -49 -109 -49 -2 0 -169 -82
-371 -183 -356 -179 -710 -365 -859 -453 -41 -24 -75 -44 -77 -44 -2 0 -43
-23 -92 -51 -48 -28 -103 -60 -121 -71 -139 -78 -495 -300 -622 -386 -52 -36
-129 -88 -170 -116 -41 -28 -77 -53 -80 -56 -3 -3 -41 -32 -85 -64 -131 -97
-272 -222 -261 -233 2 -2 52 12 112 31 60 19 125 39 144 45 19 5 78 23 130 39
52 17 149 46 215 66 66 20 134 40 150 45 198 65 1130 337 1525 446 436 120
1046 278 1151 299 13 2 56 12 94 21 39 9 77 18 85 20 8 2 69 15 135 30 214 47
660 134 765 149 19 3 44 7 55 10 11 2 43 7 70 10 28 4 57 9 65 11 8 2 38 6 65
10 49 6 84 11 155 20 19 3 53 7 75 9 200 22 198 22 325 33 125 10 729 10 850
-1 l95 -8 -50 43 c-27 24 -56 51 -65 59 -9 8 -31 28 -50 44 -19 15 -88 78
-154 140 -65 61 -125 113 -132 116 -7 3 -167 5 -354 4 -187 0 -336 2 -330 6 6
4 121 42 255 86 135 43 245 81 245 84 0 3 -39 46 -86 95 -96 100 -298 324
-359 399 -22 27 -47 57 -55 66 -8 10 -24 28 -34 41 -10 12 -33 41 -51 64 l-32
42 -99 -34z"/>
<path d="M17915 23953 c-38 -8 -95 -26 -125 -41 -52 -25 -157 -103 -172 -126
-3 -6 -16 -22 -28 -36 -12 -14 -33 -47 -47 -74 -149 -294 -11 -623 293 -695
208 -49 404 24 487 183 29 56 32 68 31 151 -1 129 -41 203 -139 261 -113 66
-262 43 -323 -49 -22 -33 -27 -52 -27 -102 0 -52 5 -68 28 -99 55 -71 141 -94
217 -57 34 17 40 17 40 4 0 -25 -68 -82 -113 -94 -59 -16 -156 -5 -215 25
-110 56 -157 166 -126 296 43 187 223 290 444 255 264 -41 435 -236 426 -489
-7 -225 -148 -392 -376 -447 -45 -10 -799 -13 -4227 -13 l-4173 0 0 -103 0
-103 4193 3 c2305 1 4203 5 4217 9 14 4 48 13 75 19 168 37 344 178 423 339
206 420 -28 889 -488 981 -87 17 -218 18 -295 2z"/>
<path d="M29814 23955 c-126 -23 -219 -61 -314 -129 -273 -196 -355 -593 -183
-885 95 -161 230 -261 433 -319 50 -15 454 -16 4258 -19 l4202 -3 0 103 0 102
-4172 1 c-3403 0 -4183 3 -4228 13 -306 73 -459 374 -336 665 33 79 122 169
215 219 47 26 172 56 239 59 179 6 322 -86 372 -237 20 -60 15 -159 -10 -211
-75 -154 -338 -195 -425 -66 -29 42 -25 51 10 28 69 -45 176 -22 231 50 25 32
29 47 29 99 0 50 -5 69 -27 102 -78 118 -286 114 -392 -8 -121 -140 -92 -361
62 -474 105 -77 272 -100 417 -57 157 47 285 188 314 347 12 65 6 187 -12 247
-58 188 -224 336 -417 373 -69 13 -196 13 -266 0z"/>
<path d="M13379 23410 c0 -11 -1 -36 -1 -55 0 -19 1 -57 1 -83 l1 -48 1895 0
1895 0 0 103 0 103 -1895 0 c-1888 0 -1895 0 -1896 -20z"/>
<path d="M30831 23327 l1 -103 1888 1 c1039 0 1891 3 1895 7 6 6 9 102 6 181
-1 16 -98 17 -1896 17 l-1896 0 2 -103z"/>
<path d="M28729 21858 c-1 -2 -2 -24 -3 -49 -3 -57 -36 -106 -79 -117 -66 -18
-181 -5 -289 33 -170 59 -237 70 -413 69 -158 0 -232 -13 -355 -62 -84 -33
-151 -73 -225 -136 -80 -68 -112 -105 -163 -188 -90 -145 -122 -274 -117 -467
6 -218 59 -369 199 -559 63 -85 84 -109 210 -240 l109 -112 -7 -68 c-3 -37
-10 -83 -16 -102 -5 -19 -10 -36 -10 -37 0 -2 21 11 47 27 61 39 145 63 196
56 96 -14 274 -133 432 -291 100 -99 149 -168 166 -229 50 -182 8 -367 -108
-477 -55 -52 -149 -101 -216 -113 -45 -8 -171 -9 -207 -1 -14 3 -38 8 -55 11
-16 3 -64 21 -105 41 -109 52 -216 161 -270 274 -55 117 -71 184 -75 326 -3
128 11 207 48 264 15 22 15 27 1 47 -8 12 -33 26 -55 32 -56 15 -99 -1 -155
-58 -99 -103 -144 -267 -109 -405 l16 -65 -35 -50 c-93 -132 -93 -291 0 -401
25 -30 26 -37 22 -109 -3 -46 -13 -92 -24 -115 l-19 -39 33 -29 c69 -62 187
-34 315 74 l66 56 43 -24 c61 -33 209 -82 303 -99 81 -15 361 -16 435 -1 209
41 379 128 529 269 136 129 233 327 256 524 15 121 8 274 -17 367 -56 217
-159 372 -438 658 -74 76 -138 144 -142 152 -15 26 -14 60 3 144 9 47 16 88
13 90 -2 2 -21 -8 -41 -22 -44 -29 -123 -58 -173 -62 -44 -4 -86 19 -214 115
-225 168 -299 272 -298 416 1 134 74 245 195 300 49 22 75 27 141 27 219 1
385 -98 474 -283 23 -47 44 -98 48 -115 13 -58 12 -195 -2 -242 -8 -25 -14
-49 -14 -54 0 -19 112 -40 155 -28 37 11 90 66 111 115 18 43 24 119 13 160
-8 28 -5 39 19 76 65 97 69 254 9 341 -18 26 -18 29 -2 54 26 40 32 143 10
198 -20 55 -57 100 -96 120 -24 13 -67 20 -70 13z"/>
<path d="M23365 21842 c-81 -5 -83 -7 -75 -55 7 -46 -2 -86 -23 -99 -22 -14
-64 -8 -163 23 -166 51 -236 62 -404 63 -196 1 -258 -7 -401 -48 -84 -24 -84
-24 -115 -5 -112 69 -280 73 -390 9 -31 -18 -32 -18 -92 12 -169 84 -410 6
-429 -140 -5 -40 13 -104 25 -86 12 19 83 36 128 31 69 -7 132 -45 171 -101
l34 -49 -3 -476 -3 -476 -28 -58 c-21 -42 -43 -68 -82 -97 -30 -22 -57 -40
-60 -40 -3 0 -17 -7 -30 -16 l-25 -16 41 -23 c56 -30 145 -109 167 -148 16
-29 17 -79 17 -592 l0 -561 -34 -42 c-18 -24 -52 -52 -75 -64 -52 -27 -157
-33 -199 -12 -16 9 -31 13 -34 10 -3 -3 -7 -24 -10 -48 -12 -117 116 -207 291
-204 67 1 90 6 137 29 l56 29 45 -20 c120 -55 238 -55 346 -1 l68 34 68 -23
c211 -71 554 -67 772 9 49 17 111 39 139 48 27 10 75 19 106 20 48 2 61 -2 78
-20 21 -23 24 -38 21 -121 l-1 -48 38 -1 c91 -4 125 0 160 18 47 24 99 90 114
146 19 66 18 180 -1 238 l-18 51 29 43 c36 53 48 86 55 146 7 60 -21 127 -72
180 -26 27 -34 42 -30 57 19 57 15 90 -12 128 -25 36 -27 46 -25 124 2 47 -2
100 -8 119 -17 52 -72 99 -123 106 -50 8 -74 2 -109 -25 -22 -17 -24 -24 -17
-61 8 -45 5 -221 -4 -279 -40 -235 -126 -432 -229 -526 -60 -53 -151 -98 -224
-110 -19 -3 -45 -8 -57 -10 -30 -6 -195 -5 -231 1 -117 22 -189 59 -256 133
-44 48 -49 59 -49 100 -1 26 -1 263 -1 526 0 386 2 481 13 487 50 33 208 43
294 19 116 -32 153 -87 159 -236 2 -59 -2 -95 -15 -135 -22 -64 -15 -78 46
-86 153 -20 259 136 221 326 -8 43 -7 53 10 78 36 50 54 126 52 209 -2 83 -12
118 -47 179 -22 36 -23 44 -13 95 13 67 8 106 -17 157 -23 43 -43 64 -89 87
-38 19 -128 21 -160 3 -21 -12 -22 -14 -7 -42 23 -45 25 -162 4 -226 -27 -80
-61 -101 -200 -125 -51 -9 -682 -12 -673 -4 8 8 23 16 270 149 l151 82 1 309
c0 341 0 341 66 431 91 123 263 186 445 160 260 -36 445 -295 443 -621 0 -46
-11 -131 -18 -138 -22 -23 98 -59 159 -48 104 20 176 180 142 316 -11 41 -9
48 12 82 53 82 62 203 23 312 -19 55 -20 63 -6 103 21 61 19 178 -4 228 -16
36 -80 104 -99 105 -4 1 -25 4 -47 8 -22 4 -58 6 -80 4z"/>
<path d="M10969 21779 c-48 -10 -120 -31 -160 -46 l-74 -29 -55 28 c-110 56
-238 59 -342 9 l-58 -28 -59 30 c-193 95 -458 -21 -427 -187 8 -41 10 -42 62
-20 84 35 203 -6 261 -90 l34 -49 -3 -476 c-3 -470 -3 -477 -25 -522 -32 -63
-65 -96 -147 -144 -25 -15 -46 -30 -46 -33 0 -4 20 -17 43 -30 55 -29 129 -98
154 -143 17 -32 18 -71 21 -585 l3 -550 -33 -50 c-19 -29 -51 -58 -76 -72 -57
-32 -148 -40 -192 -18 -43 21 -60 7 -60 -48 0 -106 121 -190 281 -195 69 -2
165 25 189 54 10 12 17 11 45 -5 108 -61 249 -65 358 -12 l64 32 61 -25 c33
-13 82 -30 109 -36 26 -6 57 -13 68 -16 34 -9 338 -12 385 -3 25 4 61 10 80
13 94 13 279 72 375 119 151 76 311 208 401 333 49 68 99 169 120 241 30 105
65 166 132 232 l64 64 -24 16 c-22 16 -69 63 -94 94 -21 26 -34 57 -67 156
-48 141 -97 224 -186 312 -70 69 -157 124 -245 154 -16 6 -12 10 25 28 111 54
222 210 268 378 30 107 57 156 128 228 55 56 62 67 47 75 -35 20 -94 80 -117
120 -13 23 -36 78 -51 122 -47 139 -117 238 -238 336 -138 111 -373 213 -540
234 -29 4 -57 9 -62 12 -4 3 -76 7 -160 8 -114 2 -172 -2 -237 -16z m316 -277
c90 -34 176 -109 207 -180 19 -43 21 -66 22 -322 1 -292 -5 -384 -30 -467 -29
-92 -99 -151 -199 -167 -32 -5 -574 -9 -850 -6 l-50 0 115 55 c63 31 167 81
231 112 l116 55 0 350 1 349 27 54 c40 83 126 151 220 175 49 12 147 8 190 -8z
m74 -1427 c66 -24 140 -88 168 -147 42 -85 44 -117 41 -503 -3 -362 -4 -371
-26 -416 -42 -84 -133 -166 -219 -198 -60 -22 -186 -27 -245 -10 -93 27 -184
113 -213 202 -15 46 -17 107 -17 552 0 275 1 510 1 522 l1 23 228 -3 c196 -2
234 -5 281 -22z"/>
<path d="M16645 21785 c-82 -12 -172 -35 -236 -60 -33 -12 -40 -12 -85 11
-104 51 -231 54 -335 7 l-62 -28 -60 30 c-54 26 -70 30 -146 29 -94 -1 -154
-19 -209 -60 -64 -50 -87 -114 -62 -180 10 -25 12 -26 28 -10 50 44 192 23
255 -38 69 -67 66 -45 67 -553 0 -499 0 -504 -56 -585 -25 -36 -138 -118 -163
-118 -20 0 -2 -19 38 -39 49 -26 138 -106 159 -145 15 -28 17 -84 20 -578 3
-537 3 -548 -18 -588 -24 -47 -86 -96 -144 -111 -45 -12 -123 -7 -156 11 -27
14 -29 12 -37 -34 -9 -59 18 -115 77 -155 110 -75 291 -81 379 -12 23 18 25
18 82 -11 43 -21 78 -30 137 -35 83 -6 119 1 205 39 46 21 49 21 77 5 52 -31
120 -46 199 -43 90 2 145 27 188 83 23 30 28 46 28 94 0 65 -14 90 -40 69 -23
-19 -122 -21 -164 -4 -47 20 -69 41 -94 89 -19 39 -20 57 -21 538 -1 322 3
501 9 506 19 14 279 4 336 -13 147 -42 255 -182 298 -381 20 -93 22 -130 26
-352 5 -284 23 -392 85 -500 63 -110 184 -159 290 -117 36 15 44 15 79 1 51
-21 143 -15 207 12 l52 23 41 -21 c51 -27 143 -37 197 -22 100 27 172 116 160
199 -3 25 -8 47 -10 49 -1 2 -20 -4 -41 -13 -77 -32 -200 1 -263 70 -75 83
-95 162 -98 401 -2 198 -8 276 -25 335 -59 200 -170 341 -334 420 -46 23 -71
39 -59 40 40 0 184 81 244 136 97 91 155 198 202 374 26 101 62 164 129 231
l56 56 -42 27 c-78 49 -105 96 -144 248 -16 63 -43 145 -61 183 -115 249 -338
411 -651 475 -126 26 -408 34 -534 15z m286 -268 c52 -10 136 -56 168 -92 37
-42 64 -100 75 -159 9 -45 9 -766 1 -811 -24 -125 -64 -192 -138 -232 -32 -16
-41 -18 -118 -28 -57 -7 -817 -11 -824 -4 -3 4 210 124 295 167 14 7 43 22 65
35 l40 22 1 421 c1 231 4 438 8 459 23 119 122 205 257 221 30 3 55 7 57 9 3
3 83 -3 113 -8z"/>
<path d="M19659 21796 c-2 -2 -25 -6 -50 -9 -72 -9 -168 -36 -259 -74 -17 -7
-29 -8 -38 0 -7 5 -36 21 -65 34 -92 43 -242 38 -331 -12 l-40 -23 -61 31
c-54 28 -69 31 -150 31 -76 0 -98 -4 -145 -26 -93 -43 -133 -93 -132 -165 1
-25 5 -50 9 -54 5 -5 27 -2 49 6 69 23 166 7 225 -38 9 -7 30 -33 45 -58 l29
-46 0 -469 c-1 -449 -2 -471 -21 -514 -31 -66 -68 -106 -140 -146 -35 -20 -64
-37 -64 -39 0 -2 19 -15 43 -28 70 -41 143 -113 163 -159 16 -39 17 -90 19
-578 1 -495 0 -538 -16 -571 -52 -105 -183 -157 -286 -114 -43 18 -53 11 -54
-36 -3 -63 1 -74 34 -111 49 -55 132 -89 231 -95 78 -5 87 -4 150 27 l68 32
61 -29 c55 -25 73 -28 162 -28 92 0 105 3 166 33 l66 32 55 -24 c92 -41 199
-59 358 -62 381 -7 719 116 951 346 120 118 181 217 238 387 41 124 92 200
165 248 l25 16 -63 62 c-72 71 -86 95 -122 209 -67 213 -184 357 -356 438 -35
17 -69 30 -75 30 -25 0 -12 15 33 39 60 32 145 118 184 187 17 31 47 104 66
163 37 114 48 140 79 185 23 33 79 91 107 110 18 13 17 16 -25 46 -72 52 -104
100 -147 227 -37 111 -81 182 -165 268 -144 148 -357 252 -610 300 -80 15
-355 31 -366 21z m253 -309 c71 -35 143 -98 171 -151 21 -40 22 -49 22 -381 0
-324 -1 -343 -22 -410 -34 -106 -99 -163 -208 -180 -35 -5 -477 -8 -785 -5
l-105 1 145 71 c80 38 182 88 228 110 45 22 82 45 83 51 0 7 1 167 3 357 2
335 2 346 24 387 26 50 91 117 136 140 96 50 218 54 308 10z m50 -1416 c66
-26 135 -87 162 -146 38 -78 42 -138 41 -505 l-1 -355 -28 -58 c-31 -63 -122
-153 -184 -183 -56 -27 -157 -41 -226 -32 -116 16 -198 74 -248 176 l-33 67
-1 532 -1 532 231 -3 c212 -2 236 -4 288 -25z"/>
<path d="M25270 21793 c-79 -8 -206 -35 -267 -58 l-65 -23 -66 30 c-109 50
-251 45 -348 -12 -31 -18 -32 -18 -91 12 -185 91 -446 -13 -427 -171 6 -46 16
-56 43 -41 64 33 178 17 238 -35 79 -67 77 -52 76 -570 -1 -500 -2 -507 -59
-582 -25 -33 -134 -113 -153 -113 -24 0 -8 -17 43 -48 97 -57 151 -120 162
-187 4 -22 7 -274 7 -560 0 -454 -2 -524 -16 -550 -44 -86 -136 -133 -235
-121 -31 4 -62 12 -69 18 -20 16 -34 -2 -38 -50 -12 -155 247 -257 428 -168
l58 28 62 -27 c105 -48 244 -44 340 8 l37 21 57 -28 c108 -53 259 -45 331 18
49 43 71 95 62 151 -4 25 -9 47 -12 50 -3 3 -22 -2 -44 -11 -51 -21 -134 -13
-178 17 -18 12 -43 38 -57 58 l-24 36 -3 509 c-2 329 1 512 7 516 18 10 275 2
321 -10 195 -53 311 -238 334 -535 3 -33 6 -136 7 -230 2 -211 16 -323 51
-405 40 -94 82 -146 140 -176 44 -23 144 -27 181 -7 26 13 36 13 71 2 60 -20
152 -16 211 10 l50 21 60 -24 c178 -73 383 48 343 202 -10 37 -10 37 -47 18
-17 -9 -50 -14 -87 -12 -102 4 -186 64 -232 164 -13 29 -25 58 -26 65 -14 66
-18 130 -21 297 -1 107 -7 218 -13 245 -49 234 -189 410 -387 485 l-30 12 62
23 c205 78 329 231 399 495 25 93 65 168 119 223 26 26 52 47 56 47 19 0 6 17
-41 50 -59 42 -96 96 -115 170 -60 222 -72 254 -140 360 -125 194 -379 347
-627 376 -29 4 -57 9 -61 11 -10 6 -327 11 -377 6z m220 -276 c91 -22 154 -60
197 -122 53 -76 56 -102 57 -505 2 -453 -3 -499 -60 -586 -42 -63 -108 -100
-194 -109 -60 -7 -828 -10 -834 -4 -2 2 88 54 200 114 l204 110 0 415 c1 228
3 433 7 455 13 91 79 174 169 209 65 27 190 38 254 23z"/>
<path d="M33765 21785 c-131 -22 -284 -74 -365 -123 -170 -104 -318 -242 -414
-386 -101 -152 -198 -383 -226 -534 -5 -32 -12 -66 -14 -77 -2 -11 -7 -42 -10
-70 -13 -95 -16 -110 -42 -183 -27 -75 -95 -165 -134 -177 -18 -6 -13 -13 34
-56 92 -84 119 -166 152 -454 9 -84 50 -244 92 -360 146 -403 400 -681 729
-795 164 -56 419 -75 601 -44 406 71 690 321 858 755 34 87 90 288 100 357 2
20 9 60 14 87 5 28 11 75 15 105 16 161 66 282 142 349 l47 42 -25 17 c-97 67
-144 164 -164 337 -39 335 -144 612 -308 812 -48 60 -166 170 -225 211 -106
74 -272 149 -371 167 -44 8 -75 15 -101 21 -48 11 -316 10 -385 -1z m290 -277
c100 -26 196 -104 241 -196 16 -31 29 -61 31 -67 21 -79 25 -148 27 -415 2
-312 -4 -380 -38 -452 -20 -42 -83 -109 -127 -135 -16 -9 -29 -20 -28 -23 0
-3 19 -19 42 -35 55 -40 100 -101 128 -172 21 -56 22 -69 22 -458 0 -428 -4
-471 -54 -570 -29 -56 -95 -122 -151 -151 -169 -86 -413 -45 -521 89 -92 113
-99 156 -101 597 -2 389 4 462 45 541 24 47 108 134 139 144 27 9 25 18 -7 32
-42 19 -112 91 -139 144 -13 26 -27 72 -31 101 -12 96 -7 649 7 709 44 188
166 308 332 327 71 9 125 6 183 -10z"/>
<path d="M36750 21785 c-41 -7 -114 -26 -162 -42 -59 -21 -90 -27 -97 -20 -6
6 -40 20 -76 33 -96 32 -200 27 -284 -13 l-61 -30 -55 28 c-136 68 -330 34
-406 -73 -18 -24 -24 -46 -24 -85 0 -28 3 -54 6 -58 4 -3 31 2 60 11 96 32
205 -8 260 -95 l29 -45 0 -462 c0 -531 0 -531 -80 -612 -26 -26 -70 -59 -98
-74 l-52 -26 50 -31 c28 -17 71 -50 96 -73 84 -78 79 -33 79 -665 l0 -561 -31
-39 c-49 -61 -106 -87 -190 -88 -48 0 -77 5 -89 15 -15 13 -19 12 -31 -5 -28
-38 -13 -109 34 -158 37 -39 86 -63 160 -77 85 -17 159 -9 225 25 l56 28 45
-21 c112 -53 236 -55 337 -5 l58 29 43 -22 c132 -66 302 -54 430 31 25 16 47
43 58 68 19 43 20 54 6 95 -8 25 -17 27 -34 10 -20 -20 -139 -18 -204 4 -71
24 -153 95 -163 139 -6 25 -10 596 -6 760 l1 36 63 -13 c71 -15 182 -27 247
-27 283 0 568 122 781 333 137 137 221 271 275 440 43 138 97 224 170 274 l33
22 -49 42 c-71 62 -103 114 -139 229 -74 237 -191 412 -366 548 -135 105 -317
188 -456 211 -24 3 -55 8 -69 11 -61 10 -312 9 -380 -2z m353 -290 c67 -31
134 -96 161 -154 21 -45 21 -56 21 -601 l0 -555 -27 -55 c-56 -112 -152 -170
-288 -174 -104 -4 -178 23 -243 87 -90 89 -89 80 -89 685 0 370 3 530 12 562
25 96 90 171 176 204 56 21 70 24 152 25 59 1 84 -4 125 -24z"/>
<path d="M13368 21775 c-2 -2 -15 -6 -30 -9 -84 -15 -164 -104 -169 -187 -5
-97 4 -115 53 -95 44 19 124 26 164 15 33 -9 94 -64 94 -85 0 -7 -36 -144 -81
-306 -44 -161 -94 -342 -110 -403 -40 -147 -113 -297 -177 -361 -27 -27 -79
-65 -116 -83 -70 -36 -78 -46 -46 -56 34 -11 80 -55 102 -99 21 -40 29 -137
18 -211 l-5 -30 137 -1 136 -1 12 46 c6 25 42 161 80 301 38 140 115 421 170
624 55 203 102 372 105 374 3 3 6 0 6 -6 2 -14 1 -13 18 -72 57 -204 99 -359
156 -565 36 -132 72 -262 80 -290 20 -69 96 -347 100 -365 2 -8 20 -72 40
-142 20 -70 34 -131 32 -135 -3 -5 -330 -8 -727 -8 l-721 0 48 -45 c27 -25 80
-73 119 -108 l71 -63 -39 -127 c-22 -70 -60 -194 -85 -277 -41 -136 -48 -153
-84 -187 -62 -57 -172 -74 -262 -40 -21 8 -40 12 -43 9 -11 -10 -16 -86 -10
-122 9 -48 57 -100 112 -121 57 -22 147 -15 202 16 l40 23 39 -24 c53 -33 168
-34 229 -2 l41 22 44 -22 c56 -28 187 -31 234 -5 71 38 105 93 100 159 -4 59
-15 81 -33 74 -10 -4 -49 -12 -89 -18 -98 -15 -143 0 -206 64 -34 36 -46 55
-42 69 3 10 7 27 9 37 2 10 10 38 17 63 7 25 13 50 15 55 5 21 54 202 67 245
l13 45 511 2 512 2 19 -67 c11 -37 44 -156 74 -265 l55 -199 -22 -14 c-55 -36
-141 -44 -205 -18 -23 9 -43 14 -46 12 -13 -14 -9 -101 6 -135 41 -89 115
-127 245 -128 81 0 97 3 150 30 l60 30 60 -30 c54 -27 69 -30 155 -30 87 0
102 3 159 31 l62 31 57 -31 c52 -28 65 -31 147 -31 102 0 157 21 194 73 28 41
45 111 37 155 -8 42 -7 42 -61 22 -57 -20 -112 -18 -162 6 -81 39 -89 55 -200
381 -57 167 -136 395 -175 508 -106 308 -112 337 -84 403 16 40 86 102 133
119 18 7 33 15 33 19 0 3 -21 14 -47 24 -101 38 -192 110 -238 188 -19 34
-108 313 -151 477 -15 59 -28 106 -74 260 -64 219 -62 257 16 337 41 42 93 51
153 29 27 -10 48 -13 54 -7 15 15 11 104 -6 138 -20 37 -67 75 -117 93 -91 32
-239 16 -328 -36 l-43 -26 -37 24 c-62 40 -94 50 -167 53 -85 4 -163 -15 -220
-54 -42 -28 -42 -28 -66 -9 -48 39 -112 60 -191 63 -42 2 -78 2 -80 0z"/>
<path d="M29527 21769 c-120 -28 -202 -116 -190 -204 6 -43 13 -46 58 -30 78
28 162 12 225 -42 79 -68 77 -49 74 -573 -1 -256 -4 -472 -6 -480 -18 -69 -88
-146 -175 -192 -24 -13 -43 -25 -43 -28 0 -3 20 -16 45 -29 68 -36 130 -95
156 -149 l23 -47 1 -535 c1 -493 0 -538 -17 -571 -50 -104 -183 -157 -285
-114 -20 8 -37 14 -38 13 -26 -33 -25 -92 1 -138 64 -108 284 -154 411 -86
l52 28 58 -28 c52 -26 69 -29 153 -29 82 0 103 4 154 28 l59 27 53 -26 c100
-49 232 -42 312 17 55 41 93 116 82 165 -11 48 -14 49 -55 30 -88 -42 -197 1
-246 96 -18 36 -19 62 -17 585 l3 548 445 0 445 0 1 -553 1 -554 -31 -46 c-17
-25 -47 -55 -66 -66 -42 -25 -122 -30 -169 -10 -43 18 -53 9 -53 -49 0 -160
218 -249 396 -161 l54 26 59 -28 c51 -26 69 -29 153 -29 84 0 101 3 150 28
l55 28 60 -27 c109 -50 244 -42 340 21 57 38 78 71 82 129 5 71 -4 81 -53 60
-75 -31 -203 1 -256 65 -47 56 -46 44 -44 616 l1 540 28 57 c28 57 76 100 168
151 l32 18 -39 20 c-89 47 -132 88 -166 158 -23 46 -23 48 -25 516 -1 521 -3
505 65 571 18 18 53 39 77 48 52 17 141 15 172 -4 26 -17 32 -12 42 32 26 114
-108 213 -289 213 -75 0 -91 -4 -140 -30 l-54 -30 -59 29 c-45 23 -73 30 -130
32 -73 2 -173 -22 -209 -50 -15 -11 -26 -8 -80 18 -53 26 -73 31 -137 31 -110
0 -185 -36 -231 -110 -22 -36 -30 -119 -13 -136 4 -4 29 -1 55 8 94 31 194
-11 235 -98 20 -43 21 -62 21 -591 l0 -548 -631 0 c-527 0 -628 2 -612 13 11
8 93 55 183 106 l162 93 0 448 0 448 33 48 c44 66 86 89 163 89 37 0 67 -5 77
-14 29 -24 47 -6 47 47 0 162 -212 250 -397 166 -18 -8 -35 -19 -38 -24 -3 -5
-32 5 -65 21 -102 50 -262 46 -339 -11 -23 -16 -26 -16 -85 13 -66 32 -165 43
-239 26z"/>
<path d="M9794 17751 c-2 -2 -4 -49 -4 -103 l0 -98 6618 -1 c3639 0 6628 -2
6642 -5 133 -23 213 -57 284 -123 106 -99 157 -227 150 -373 -13 -271 -236
-462 -529 -453 -182 5 -314 109 -345 274 -32 172 70 297 255 315 64 7 136 -18
172 -58 45 -49 45 -72 -1 -45 -70 41 -172 19 -223 -48 -40 -52 -44 -137 -10
-195 39 -67 93 -93 192 -92 82 0 116 12 176 59 111 89 139 273 61 400 -38 63
-82 104 -142 135 -177 90 -416 53 -556 -86 -84 -83 -122 -168 -130 -294 -11
-161 41 -299 155 -410 37 -36 87 -76 111 -89 47 -24 150 -63 150 -56 0 3 12 0
26 -6 28 -10 179 -13 227 -4 15 3 38 7 52 9 140 25 285 101 380 201 174 182
228 440 147 700 -21 69 -101 196 -157 250 -81 80 -205 146 -330 176 l-90 22
-6638 1 c-3651 1 -6641 -1 -6643 -3z"/>
<path d="M25017 17753 c-1 -1 -29 -3 -62 -4 -93 -4 -231 -44 -310 -90 -83 -48
-124 -83 -188 -162 -97 -119 -137 -231 -143 -397 -7 -208 56 -372 194 -508
207 -202 547 -262 799 -140 307 150 391 573 159 803 -163 162 -459 180 -626
38 -122 -104 -153 -288 -72 -418 53 -85 129 -127 234 -131 57 -3 75 1 119 24
164 86 110 335 -71 334 -33 -1 -64 -8 -86 -21 -30 -18 -34 -18 -34 -4 0 9 17
32 38 52 108 103 335 56 401 -83 57 -122 20 -276 -90 -369 -68 -59 -137 -80
-254 -80 -247 0 -433 132 -493 349 -31 112 -21 226 28 331 66 142 215 246 380
267 25 3 3021 5 6658 5 l6613 1 -3 102 -3 102 -6593 1 c-3627 0 -6594 -1
-6595 -2z"/>
<path d="M13313 17071 c0 -83 2 -100 16 -103 9 -2 1942 -3 4296 -3 l4280 1 3
102 3 102 -4299 0 -4298 0 -1 -99z"/>
<path d="M26090 17068 l0 -103 4290 1 c2359 0 4293 4 4297 8 5 4 8 50 8 102
l0 94 -4297 0 -4298 0 0 -102z"/>
<path d="M23872 16534 c-131 -34 -249 -129 -309 -251 -35 -70 -37 -81 -36
-162 2 -131 63 -282 177 -439 44 -61 211 -269 258 -321 l40 -45 25 33 c15 19
36 43 47 55 47 47 188 228 241 307 175 261 205 462 94 625 -38 56 -122 130
-181 160 -102 52 -243 67 -356 38z m231 -210 c51 -17 116 -75 144 -127 48 -91
-1 -233 -152 -438 -90 -122 -93 -125 -108 -107 -228 291 -290 436 -232 549 23
44 94 107 139 123 55 19 152 20 209 0z"/>
</g>
</svg>
